<svg width="1026" height="541" viewBox="0 0 1026 541" fill="none" xmlns="http://www.w3.org/2000/svg">
<path d="M58.7221 482.068C128.664 549.804 237.816 559.148 318.579 510.102C341.556 496.149 369.379 491.47 396.071 497.05C459.248 510.257 525.335 501.237 581.623 472.475C619.466 453.14 665.558 456.502 700.871 479.692C724.312 495.084 751.533 506.115 781.445 511.304C892.404 530.556 1000.28 461.271 1021.61 356.967C1043.43 250.299 968.317 147.788 855.096 128.8C827.433 124.161 800.079 124.943 774.26 130.338C732.356 139.092 688.575 124.455 661.533 93.0739C644.464 73.2662 623.881 55.5878 599.973 40.8997C476.419 -34.9997 310.903 -2.23181 230.283 114.086C230.196 114.208 230.112 114.332 230.026 114.455C215.261 135.84 192.296 151.086 165.738 156.134C127.003 163.496 90.0796 181.391 60.1472 209.827C-18.6577 284.693 -19.3142 406.492 58.7221 482.068Z" fill="#0EBFAA"/>
</svg>
