<svg width="736" height="504" viewBox="0 0 736 504" fill="none" xmlns="http://www.w3.org/2000/svg">
<path d="M121.5 469C120.1 469 118.697 469.534 117.63 470.604L105.604 482.629C103.466 484.766 103.466 488.233 105.603 490.37L117.629 502.396C118.656 503.423 120.048 504 121.5 504C122.952 504 124.344 503.424 125.371 502.396L137.397 490.37C139.534 488.233 139.534 484.766 137.396 482.629L125.37 470.604C124.302 469.534 122.9 469 121.5 469ZM117.216 486.499L121.5 482.215L125.784 486.499L121.5 490.785L117.216 486.499Z" fill="#CCF5F0"/>
<path d="M17.5 -1.52588e-05C14.4828 -1.52588e-05 12.0381 2.44482 12.0381 5.46208C12.0381 9.08673 9.08864 12.0373 5.46192 12.0373C2.44476 12.0373 0 14.4822 0 17.4994C0 20.5167 2.44476 22.9615 5.46192 22.9615C9.08755 22.9615 12.0381 25.9111 12.0381 29.5379C12.0381 32.5552 14.4828 35 17.5 35C20.5172 35 22.9619 32.5552 22.9619 29.5379C22.9619 25.9122 25.9114 22.9615 29.5381 22.9615C32.5553 22.9615 35 20.5167 35 17.4994C35 14.4822 32.5553 12.0373 29.5381 12.0373C25.9125 12.0373 22.9619 9.08782 22.9619 5.46208C22.9619 2.44482 20.5172 -1.52588e-05 17.5 -1.52588e-05Z" fill="#00CCB3"/>
<path d="M715.395 88.5891C713.085 89.2079 711.716 91.5806 712.334 93.8901C713.078 96.6653 711.426 99.5287 708.65 100.273C706.34 100.891 704.97 103.264 705.589 105.574C706.208 107.883 708.581 109.253 710.89 108.634C713.665 107.89 716.529 109.543 717.272 112.318C717.891 114.628 720.264 115.998 722.573 115.379C724.882 114.76 726.252 112.387 725.633 110.078C724.89 107.303 726.542 104.44 729.318 103.696C731.628 103.077 732.998 100.705 732.379 98.3952C731.76 96.0858 729.387 94.7159 727.078 95.3347C724.303 96.0782 721.44 94.4257 720.696 91.6497C720.077 89.3411 717.704 87.9703 715.395 88.5891Z" fill="#88E766"/>
</svg>
