<svg width="181" height="27" viewBox="0 0 181 27" fill="none" xmlns="http://www.w3.org/2000/svg">
<path d="M10.186 26.306C8.37267 26.306 6.684 26.1133 5.12 25.728C3.57867 25.32 2.30933 24.7647 1.312 24.062C0.926667 23.7673 0.643333 23.4613 0.462 23.144C0.303333 22.8267 0.224 22.4187 0.224 21.92C0.224 21.24 0.428 20.6507 0.836 20.152C1.244 19.6533 1.72 19.404 2.264 19.404C2.55867 19.404 2.842 19.4493 3.114 19.54C3.386 19.6307 3.726 19.8007 4.134 20.05C5.06333 20.5713 5.98133 20.9453 6.888 21.172C7.81733 21.3987 8.86 21.512 10.016 21.512C11.3533 21.512 12.362 21.3193 13.042 20.934C13.7447 20.526 14.096 19.9367 14.096 19.166C14.096 18.6447 13.7673 18.2027 13.11 17.84C12.4753 17.4547 11.2513 17.0807 9.438 16.718C7.194 16.242 5.43733 15.6753 4.168 15.018C2.89867 14.3607 2.00333 13.59 1.482 12.706C0.983333 11.7993 0.734 10.7113 0.734 9.442C0.734 7.99133 1.16467 6.67667 2.026 5.498C2.88733 4.31933 4.066 3.40133 5.562 2.744C7.08067 2.064 8.78067 1.724 10.662 1.724C12.3167 1.724 13.79 1.90533 15.082 2.268C16.374 2.63067 17.5527 3.19733 18.618 3.968C19.026 4.26267 19.3093 4.58 19.468 4.92C19.6493 5.23733 19.74 5.634 19.74 6.11C19.74 6.79 19.536 7.37933 19.128 7.878C18.7427 8.37667 18.278 8.626 17.734 8.626C17.4393 8.626 17.1673 8.592 16.918 8.524C16.6687 8.43333 16.3173 8.252 15.864 7.98C15.7507 7.912 15.422 7.742 14.878 7.47C14.3567 7.17533 13.7333 6.94867 13.008 6.79C12.3053 6.60867 11.5347 6.518 10.696 6.518C9.54 6.518 8.61067 6.74467 7.908 7.198C7.20533 7.62867 6.854 8.20667 6.854 8.932C6.854 9.36267 6.97867 9.714 7.228 9.986C7.47733 10.258 7.942 10.53 8.622 10.802C9.302 11.0513 10.3107 11.312 11.648 11.584C13.824 12.06 15.5353 12.638 16.782 13.318C18.0287 13.9753 18.9127 14.746 19.434 15.63C19.9553 16.514 20.216 17.5567 20.216 18.758C20.216 20.254 19.7967 21.58 18.958 22.736C18.1193 23.8693 16.9407 24.7533 15.422 25.388C13.926 26 12.1807 26.306 10.186 26.306ZM32.8417 21.886C34.3604 21.9767 35.1197 22.6567 35.1197 23.926C35.1197 24.7193 34.8137 25.3087 34.2017 25.694C33.5897 26.0793 32.717 26.238 31.5837 26.17L30.6317 26.102C28.5917 25.9433 27.039 25.3313 25.9737 24.266C24.931 23.178 24.4097 21.6707 24.4097 19.744V13.726H23.4237C21.6104 13.726 20.7037 12.978 20.7037 11.482C20.7037 10.0087 21.6104 9.272 23.4237 9.272H24.4097V7.062C24.4097 6.20067 24.6817 5.52067 25.2257 5.022C25.7697 4.50067 26.5064 4.24 27.4357 4.24C28.365 4.24 29.1017 4.50067 29.6457 5.022C30.1897 5.52067 30.4617 6.20067 30.4617 7.062V9.272H32.3317C34.145 9.272 35.0517 10.0087 35.0517 11.482C35.0517 12.978 34.145 13.726 32.3317 13.726H30.4617V20.254C30.4617 20.6847 30.5864 21.0473 30.8357 21.342C31.1077 21.6367 31.4477 21.7953 31.8557 21.818L32.8417 21.886ZM44.513 8.864C47.097 8.864 49.001 9.48733 50.225 10.734C51.4717 11.958 52.095 13.828 52.095 16.344V23.45C52.095 24.3113 51.8343 24.9913 51.313 25.49C50.8143 25.966 50.1117 26.204 49.205 26.204C48.4117 26.204 47.7543 25.9773 47.233 25.524C46.7343 25.0707 46.4623 24.4587 46.417 23.688C46.0997 24.504 45.567 25.1387 44.819 25.592C44.071 26.0453 43.1757 26.272 42.133 26.272C40.977 26.272 39.9343 26.0453 39.005 25.592C38.0757 25.116 37.339 24.47 36.795 23.654C36.2737 22.8153 36.013 21.8747 36.013 20.832C36.013 19.6307 36.319 18.6787 36.931 17.976C37.5657 17.2507 38.563 16.7293 39.923 16.412C41.283 16.0947 43.119 15.936 45.431 15.936H46.349V15.528C46.349 14.7347 46.1677 14.168 45.805 13.828C45.4423 13.4653 44.8303 13.284 43.969 13.284C43.0397 13.284 41.6797 13.6013 39.889 14.236C39.3677 14.4173 38.9257 14.508 38.563 14.508C37.9963 14.508 37.543 14.304 37.203 13.896C36.863 13.488 36.693 12.9553 36.693 12.298C36.693 11.7993 36.795 11.3913 36.999 11.074C37.203 10.7567 37.5317 10.4733 37.985 10.224C38.7783 9.816 39.7757 9.48733 40.977 9.238C42.1783 8.98867 43.357 8.864 44.513 8.864ZM43.561 22.226C44.377 22.226 45.0457 21.9427 45.567 21.376C46.0883 20.7867 46.349 20.0387 46.349 19.132V18.724H45.805C44.3543 18.724 43.323 18.86 42.711 19.132C42.099 19.3813 41.793 19.812 41.793 20.424C41.793 20.9453 41.9517 21.376 42.269 21.716C42.609 22.056 43.0397 22.226 43.561 22.226ZM66.0948 8.932C66.8654 8.864 67.4774 9.04533 67.9308 9.476C68.3841 9.884 68.6108 10.496 68.6108 11.312C68.6108 12.2187 68.3954 12.876 67.9648 13.284C67.5568 13.692 66.8088 13.9527 65.7208 14.066L64.7008 14.168C63.5674 14.304 62.7514 14.6667 62.2528 15.256C61.7768 15.8227 61.5388 16.6047 61.5388 17.602V23.416C61.5388 24.3453 61.2441 25.048 60.6548 25.524C60.0881 25.9773 59.3741 26.204 58.5128 26.204C57.6514 26.204 56.9261 25.9773 56.3368 25.524C55.7701 25.048 55.4868 24.3453 55.4868 23.416V11.652C55.4868 10.7907 55.7701 10.122 56.3368 9.646C56.9261 9.17 57.6288 8.932 58.4448 8.932C59.2834 8.932 59.9521 9.15867 60.4508 9.612C60.9721 10.0653 61.2328 10.7 61.2328 11.516V12.162C61.5954 11.1647 62.1848 10.394 63.0008 9.85C63.8394 9.306 64.7121 9.01133 65.6188 8.966L66.0948 8.932ZM81.4179 21.886C82.9365 21.9767 83.6959 22.6567 83.6959 23.926C83.6959 24.7193 83.3899 25.3087 82.7779 25.694C82.1659 26.0793 81.2932 26.238 80.1599 26.17L79.2079 26.102C77.1679 25.9433 75.6152 25.3313 74.5499 24.266C73.5072 23.178 72.9859 21.6707 72.9859 19.744V13.726H71.9999C70.1865 13.726 69.2799 12.978 69.2799 11.482C69.2799 10.0087 70.1865 9.272 71.9999 9.272H72.9859V7.062C72.9859 6.20067 73.2579 5.52067 73.8019 5.022C74.3459 4.50067 75.0825 4.24 76.0119 4.24C76.9412 4.24 77.6779 4.50067 78.2219 5.022C78.7659 5.52067 79.0379 6.20067 79.0379 7.062V9.272H80.9079C82.7212 9.272 83.6279 10.0087 83.6279 11.482C83.6279 12.978 82.7212 13.726 80.9079 13.726H79.0379V20.254C79.0379 20.6847 79.1625 21.0473 79.4119 21.342C79.6839 21.6367 80.0239 21.7953 80.4319 21.818L81.4179 21.886Z" fill="#00CCB3"/>
<path d="M88.6012 26C87.6718 26 86.9578 25.7507 86.4592 25.252C85.9605 24.7533 85.7112 24.0393 85.7112 23.11V4.92C85.7112 3.99067 85.9605 3.27667 86.4592 2.778C86.9578 2.27933 87.6718 2.03 88.6012 2.03H100.365C101.34 2.03 102.076 2.234 102.575 2.642C103.074 3.05 103.323 3.63933 103.323 4.41C103.323 6.042 102.337 6.858 100.365 6.858H91.7972V11.414H99.6852C101.657 11.414 102.643 12.2187 102.643 13.828C102.643 14.5987 102.394 15.188 101.895 15.596C101.396 16.004 100.66 16.208 99.6852 16.208H91.7972V21.172H100.365C102.337 21.172 103.323 21.988 103.323 23.62C103.323 24.3907 103.074 24.98 102.575 25.388C102.076 25.796 101.34 26 100.365 26H88.6012ZM116.198 8.932C116.969 8.864 117.581 9.04533 118.034 9.476C118.488 9.884 118.714 10.496 118.714 11.312C118.714 12.2187 118.499 12.876 118.068 13.284C117.66 13.692 116.912 13.9527 115.824 14.066L114.804 14.168C113.671 14.304 112.855 14.6667 112.356 15.256C111.88 15.8227 111.642 16.6047 111.642 17.602V23.416C111.642 24.3453 111.348 25.048 110.758 25.524C110.192 25.9773 109.478 26.204 108.616 26.204C107.755 26.204 107.03 25.9773 106.44 25.524C105.874 25.048 105.59 24.3453 105.59 23.416V11.652C105.59 10.7907 105.874 10.122 106.44 9.646C107.03 9.17 107.732 8.932 108.548 8.932C109.387 8.932 110.056 9.15867 110.554 9.612C111.076 10.0653 111.336 10.7 111.336 11.516V12.162C111.699 11.1647 112.288 10.394 113.104 9.85C113.943 9.306 114.816 9.01133 115.722 8.966L116.198 8.932ZM122.86 26.204C121.999 26.204 121.274 25.9773 120.684 25.524C120.118 25.048 119.834 24.3453 119.834 23.416V11.72C119.834 10.7907 120.118 10.0993 120.684 9.646C121.274 9.17 121.999 8.932 122.86 8.932C123.722 8.932 124.436 9.17 125.002 9.646C125.592 10.0993 125.886 10.7907 125.886 11.72V23.416C125.886 24.3453 125.592 25.048 125.002 25.524C124.436 25.9773 123.722 26.204 122.86 26.204ZM122.86 6.552C121.84 6.552 121.024 6.29133 120.412 5.77C119.823 5.226 119.528 4.512 119.528 3.628C119.528 2.744 119.823 2.04133 120.412 1.52C121.024 0.998666 121.84 0.737999 122.86 0.737999C123.858 0.737999 124.662 0.998666 125.274 1.52C125.886 2.04133 126.192 2.744 126.192 3.628C126.192 4.512 125.886 5.226 125.274 5.77C124.685 6.29133 123.88 6.552 122.86 6.552ZM137.455 26.272C134.735 26.272 132.582 25.5013 130.995 23.96C129.408 22.4187 128.615 20.322 128.615 17.67C128.615 15.9247 129 14.3833 129.771 13.046C130.542 11.7087 131.618 10.6773 133.001 9.952C134.406 9.22667 136.004 8.864 137.795 8.864C138.747 8.864 139.699 8.98867 140.651 9.238C141.603 9.48733 142.442 9.83867 143.167 10.292C143.87 10.7227 144.221 11.38 144.221 12.264C144.221 12.9667 144.051 13.5447 143.711 13.998C143.394 14.4287 142.974 14.644 142.453 14.644C142.113 14.644 141.784 14.5987 141.467 14.508C141.15 14.3947 140.798 14.236 140.413 14.032C139.96 13.828 139.574 13.6807 139.257 13.59C138.94 13.4767 138.588 13.42 138.203 13.42C135.959 13.42 134.837 14.7913 134.837 17.534C134.837 18.894 135.12 19.9367 135.687 20.662C136.276 21.3647 137.115 21.716 138.203 21.716C138.588 21.716 138.94 21.6707 139.257 21.58C139.597 21.4667 139.971 21.308 140.379 21.104C140.832 20.9 141.195 20.7527 141.467 20.662C141.762 20.5487 142.079 20.492 142.419 20.492C142.94 20.492 143.36 20.7187 143.677 21.172C144.017 21.6027 144.187 22.1693 144.187 22.872C144.187 23.3027 144.096 23.6993 143.915 24.062C143.734 24.402 143.484 24.6627 143.167 24.844C141.603 25.796 139.699 26.272 137.455 26.272ZM160.235 8.932C161.164 8.932 161.901 9.18133 162.445 9.68C162.989 10.1787 163.261 10.8587 163.261 11.72V23.484C163.261 24.2773 162.978 24.9347 162.411 25.456C161.844 25.9547 161.108 26.204 160.201 26.204C159.385 26.204 158.716 25.9887 158.195 25.558C157.674 25.1047 157.402 24.504 157.379 23.756C156.858 24.572 156.189 25.1953 155.373 25.626C154.58 26.0567 153.662 26.272 152.619 26.272C150.466 26.272 148.868 25.6827 147.825 24.504C146.782 23.3027 146.261 21.4893 146.261 19.064V11.72C146.261 10.8587 146.533 10.1787 147.077 9.68C147.621 9.18133 148.358 8.932 149.287 8.932C150.216 8.932 150.953 9.18133 151.497 9.68C152.041 10.1787 152.313 10.8587 152.313 11.72V19.2C152.313 20.832 153.016 21.648 154.421 21.648C155.237 21.648 155.906 21.3533 156.427 20.764C156.948 20.1747 157.209 19.404 157.209 18.452V11.72C157.209 10.8587 157.481 10.1787 158.025 9.68C158.569 9.18133 159.306 8.932 160.235 8.932ZM173.38 26.272C171.861 26.272 170.58 26.1587 169.538 25.932C168.495 25.7053 167.577 25.3427 166.784 24.844C166.466 24.6853 166.217 24.4133 166.036 24.028C165.854 23.6427 165.764 23.212 165.764 22.736C165.764 22.124 165.922 21.6253 166.24 21.24C166.58 20.832 166.999 20.628 167.498 20.628C167.838 20.628 168.155 20.6733 168.45 20.764C168.744 20.832 169.107 20.9567 169.538 21.138C170.263 21.3873 170.898 21.58 171.442 21.716C172.008 21.852 172.722 21.92 173.584 21.92C174.196 21.92 174.672 21.8407 175.012 21.682C175.374 21.5007 175.556 21.2513 175.556 20.934C175.556 20.6847 175.465 20.492 175.284 20.356C175.125 20.22 174.808 20.0953 174.332 19.982C173.856 19.846 173.051 19.6647 171.918 19.438C169.9 19.0527 168.438 18.4747 167.532 17.704C166.648 16.9107 166.206 15.8 166.206 14.372C166.206 13.3293 166.523 12.3887 167.158 11.55C167.815 10.7113 168.71 10.054 169.844 9.578C170.977 9.102 172.246 8.864 173.652 8.864C174.672 8.864 175.658 8.98867 176.61 9.238C177.584 9.48733 178.446 9.83867 179.194 10.292C179.896 10.7 180.248 11.3573 180.248 12.264C180.248 12.8987 180.078 13.4313 179.738 13.862C179.398 14.2927 178.978 14.508 178.48 14.508C177.89 14.508 177.188 14.3153 176.372 13.93C175.828 13.6807 175.34 13.4993 174.91 13.386C174.502 13.25 174.014 13.182 173.448 13.182C172.881 13.182 172.439 13.2727 172.122 13.454C171.804 13.6127 171.646 13.8507 171.646 14.168C171.646 14.5307 171.861 14.814 172.292 15.018C172.745 15.222 173.629 15.4487 174.944 15.698C177.142 16.0833 178.695 16.6727 179.602 17.466C180.508 18.2367 180.962 19.3587 180.962 20.832C180.962 22.4867 180.27 23.8127 178.888 24.81C177.528 25.7847 175.692 26.272 173.38 26.272Z" fill="#27C645"/>
</svg>
