<svg width="96" height="24" viewBox="0 0 96 24" fill="none" xmlns="http://www.w3.org/2000/svg">
<path d="M93.8227 6.19321C93.9171 6.40285 94.0009 6.67533 94.0954 6.88497C94.3164 6.72806 94.6006 6.58169 94.8216 6.42478C94.3418 7.54003 95.1701 9.9401 95.2844 11.187C95.4195 12.6958 95.5546 14.2046 95.6266 15.7028C95.735 17.5625 96.6611 21.8852 95.1134 23.3712C93.3446 25.0142 89.8918 22.9832 88.0413 22.4154C86.317 21.8688 84.6033 21.2593 82.879 20.7126C81.9275 20.392 81.0022 20.1082 80.0507 19.7876C79.7458 19.672 79.4041 19.5826 79.0992 19.467C77.9424 19.4029 77.8691 19.0676 78.8058 18.5133C78.7274 18.0156 78.6597 17.455 78.5813 16.9573C78.6601 17.0674 78.7389 17.1775 78.8176 17.2875C78.2972 17.1036 77.8136 16.8936 77.2932 16.7097C77.1247 16.94 76.9299 17.1336 76.7351 17.3272C76.8888 16.2221 78.4039 15.6999 79.1234 16.6278C79.7115 17.3723 79.753 17.8962 79.4418 18.7812C79.2572 19.2996 78.7308 19.7285 78.1681 19.796C78.0313 19.8378 77.9051 19.8167 77.7683 19.8584C77.2424 19.8998 76.5589 19.7209 76.2439 19.2806C75.1099 17.5402 76.1638 15.5193 78.3459 15.8517C80.2125 16.1314 82.1782 17.1707 83.9918 17.7646C86.0472 18.4635 88.0396 19.1519 90.095 19.8508C90.9834 20.1609 91.9663 20.6805 92.8864 20.802C93.4911 20.8708 93.533 21.007 92.9491 21.2002C92.9813 20.624 93.0241 19.985 93.0562 19.4088C93.1371 17.5807 93.1812 15.7787 93.2252 13.9768C93.2379 11.9757 93.1981 9.9013 93.1108 7.91586C93.0698 7.00434 92.9338 6.27082 93.7181 5.65878C93.976 5.47572 94.3389 5.43944 94.5963 5.64402C94.9431 5.89583 95.0007 6.13162 95.0265 6.55596C95.0105 6.84405 94.7526 7.02712 94.5159 7.08448C94.479 7.11063 94.4159 7.10009 94.3791 7.12624C93.9163 7.17812 93.5068 6.52812 93.8227 6.19321Z" fill="#425366"/>
<path d="M93.489 22.809C90.0074 18.253 85.7093 14.8854 80.5004 12.4963C79.1128 11.8766 79.9461 9.62503 81.36 10.2814C86.8476 12.7493 91.4814 16.8193 94.7522 21.8569C95.2929 22.6904 94.0929 23.653 93.489 22.809Z" fill="#425366"/>
<path d="M74.2308 8.70213C71.8548 7.78808 69.4208 7.02588 66.955 6.45222C64.8941 5.97854 62.6328 5.9237 60.7247 5.12017C59.8469 4.74729 59.8905 3.33298 60.9161 3.21361C63.0567 3.02211 65.3802 3.86276 67.42 4.46214C69.9171 5.23489 72.3456 6.22233 74.716 7.36163C75.557 7.76065 75.1192 9.01215 74.2308 8.70213Z" fill="#425366"/>
<path d="M54.6791 3.26971C49.2216 2.16375 43.9314 1.99039 38.3618 2.51343C36.9102 2.65854 36.5655 0.468523 38.0277 0.260572C43.6922 -0.440474 49.5655 0.314973 54.9539 2.02328C55.6636 2.23882 55.3731 3.38571 54.6791 3.26971Z" fill="#425366"/>
<path d="M30.8874 3.94589C29.335 4.88188 27.62 5.43529 25.947 6.12494C24.658 6.65262 21.9174 7.3254 21.3953 8.69205C21.1158 9.38845 20.2952 9.63901 19.6909 9.18262C19.6015 9.13538 19.549 9.06198 19.4597 9.01474C18.971 8.64228 18.8508 8.00831 19.0091 7.45322C19.5054 5.66223 21.9775 5.23536 23.4558 4.73931C25.6916 3.98217 28.1117 3.09427 30.494 3.0078C30.92 2.98207 31.4294 3.61646 30.8874 3.94589Z" fill="#425366"/>
<path d="M12.2724 12.4014C10.6142 13.9659 8.9191 15.5565 7.23461 17.0843C5.89226 18.3139 3.46631 19.8146 2.73881 21.4378C2.38566 22.1865 1.565 22.437 0.8608 21.9962C0.771452 21.949 0.682102 21.9017 0.592754 21.8545C0.0041537 21.4977 -0.0949339 20.738 0.0740232 20.12C0.633403 18.3396 3.08011 17.1008 4.49063 16.0441C6.68539 14.3755 8.91698 12.6807 11.1117 11.012C12.0539 10.2325 13.1515 11.6114 12.2724 12.4014Z" fill="#425366"/>
</svg>
